# xmcd
#
# Track frame offsets: 
#        150
#        9150
#        19575
#        29825
#        41350
#        58100
#        70350
#        83025
#        98900
#        112950
#        126787
#        136750
#        153550
#        166125
#        178875
#
# Disc length: 2490 seconds
#
# Revision: 0
# Processed by: cddbd v1.4PL0 Copyright (c) Steve Scherf et al.
# Submitted via: ExactAudioCopy v0.90a11
#
DISCID=bd09b80f
DTITLE=Rolling Stones - Live In Europe
DYEAR=1900
DGENRE=
TTITLE0=Come On
TTITLE1=Memphis Tennessee
TTITLE2=Roll Over Beethoven
TTITLE3=Route 66
TTITLE4=Cops and Robbers
TTITLE5=You Better Move On
TTITLE6=Mona
TTITLE7=Everybody Needs Somebody To Love
TTITLE8=The Last Time
TTITLE9=Cry To Me
TTITLE10=Fanny Mae
TTITLE11=Satisfaction
TTITLE12=Mercy Mercy
TTITLE13=Time Is On My Side
TTITLE14=Don't Lie To Me
EXTD=
EXTT0=
EXTT1=
EXTT2=
EXTT3=
EXTT4=
EXTT5=
EXTT6=
EXTT7=
EXTT8=
EXTT9=
EXTT10=
EXTT11=
EXTT12=
EXTT13=
EXTT14=
PLAYORDER=
